<svg xmlns="http://www.w3.org/2000/svg" viewBox="0 0 800 800" role="img" aria-labelledby="title desc">
  <title id="title">Cleaning Services Provider</title>
  <desc id="desc">Símbolo triangular entrelazado en azul profundo y turquesa.</desc>
  <defs>
    <linearGradient id="navy" x1="130" y1="650" x2="485" y2="130" gradientUnits="userSpaceOnUse">
      <stop offset="0" stop-color="#061a3d"/>
      <stop offset="0.5" stop-color="#123f78"/>
      <stop offset="1" stop-color="#2f6dac"/>
    </linearGradient>
    <linearGradient id="cyan" x1="365" y1="130" x2="690" y2="650" gradientUnits="userSpaceOnUse">
      <stop offset="0" stop-color="#58d8e5"/>
      <stop offset="0.48" stop-color="#0799af"/>
      <stop offset="1" stop-color="#006679"/>
    </linearGradient>
    <linearGradient id="base" x1="120" y1="655" x2="675" y2="655" gradientUnits="userSpaceOnUse">
      <stop offset="0" stop-color="#18b4c3"/>
      <stop offset="0.48" stop-color="#0c6383"/>
      <stop offset="1" stop-color="#071e47"/>
    </linearGradient>
    <linearGradient id="shine" x1="0" y1="0" x2="1" y2="1">
      <stop offset="0" stop-color="#fff" stop-opacity=".68"/>
      <stop offset=".2" stop-color="#fff" stop-opacity=".08"/>
      <stop offset=".78" stop-color="#fff" stop-opacity="0"/>
      <stop offset="1" stop-color="#fff" stop-opacity=".28"/>
    </linearGradient>
    <filter id="shadow" x="-30%" y="-30%" width="160%" height="170%">
      <feDropShadow dx="0" dy="24" stdDeviation="20" flood-color="#04152f" flood-opacity=".24"/>
    </filter>
  </defs>
  <g filter="url(#shadow)">
    <path d="M111 619 352 201c22-38 74-38 96 0l55 96-61 108-42-73-178 307H122c-16 0-24-11-11-20Z" fill="url(#navy)"/>
    <path d="M352 201c22-38 74-38 96 0l241 418c13 23 4 42-22 42H556l-61-106h73L400 264l-48-63Z" fill="url(#cyan)"/>
    <path d="M122 639h446l61-106 60 86c13 23 4 42-22 42H133c-27 0-34-12-22-42l11-20v40Z" fill="url(#base)"/>
    <path d="M111 619 352 201c22-38 74-38 96 0M352 201l48 63 168 291M122 639h446" fill="none" stroke="url(#shine)" stroke-width="8" stroke-linecap="round" opacity=".65"/>
    <path d="M222 639 400 332l42 73-133 234h-87Z" fill="#fff" fill-opacity=".98"/>
    <path d="M442 405 495 297l134 236-61 106-126-234Z" fill="#fff" fill-opacity=".98"/>
    <path d="M309 639h259l-43-75H352l-43 75Z" fill="#fff" fill-opacity=".98"/>
  </g>
</svg>
