<svg xmlns="http://www.w3.org/2000/svg" width="512" height="512" viewBox="0 0 512 512"><rect width="512" height="512" rx="96" fill="#082b5c"/><g transform="translate(43 43) scale(.83)"><path fill="#22b8c6" d="M256 52c-38 0-71 20-89 50-10-6-22-10-35-10-39 0-71 32-71 71 0 13 4 25 10 35-30 18-50 51-50 89s20 71 50 89c-6 10-10 22-10 35 0 39 32 71 71 71 13 0 25-4 35-10 18 30 51 50 89 50s71-20 89-50c10 6 22 10 35 10 39 0 71-32 71-71 0-13-4-25-10-35 30-18 50-51 50-89s-20-71-50-89c6-10 10-22 10-35 0-39-32-71-71-71-13 0-25 4-35 10-18-30-51-50-89-50zm0 56c27 0 49 22 49 49 0 8-2 16-6 23l-43 74-43-74c-4-7-6-15-6-23 0-27 22-49 49-49zm-124 40c17 0 33 9 42 23l43 74-86-1c-8 0-16-2-23-6-23-13-31-43-18-66 9-15 25-24 42-24zm248 0c17 0 33 9 42 24 13 23 5 53-18 66-7 4-15 6-23 6l-86 1 43-74c9-14 25-23 42-23zM86 238c8 0 16 2 23 6l74 43-74 43c-7 4-15 6-23 6-27 0-49-22-49-49s22-49 49-49zm340 0c27 0 49 22 49 49s-22 49-49 49c-8 0-16-2-23-6l-74-43 74-43c7-4 15-6 23-6zM131 330l86-1-43 74c-9 14-25 23-42 23s-33-9-42-24c-13-23-5-53 18-66 7-4 15-6 23-6zm250 0c8 0 16 2 23 6 23 13 31 43 18 66-9 15-25 24-42 24-17 0-33-9-42-23l-43-74 86 1zm-125 14 43 74c4 7 6 15 6 23 0 27-22 49-49 49s-49-22-49-49c0-8 2-16 6-23l43-74z"/><path fill="#8be6ef" opacity=".65" d="M256 108c27 0 49 22 49 49 0 8-2 16-6 23l-13 22c-2-40-25-70-65-82 9-8 21-12 35-12zM132 148c17 0 33 9 42 23l13 22c-37-16-74-10-103 18-1-13 1-26 8-38 9-16 24-25 40-25z"/></g></svg>